<svg width="128" height="128" viewBox="0 0 128 128" fill="none" xmlns="http://www.w3.org/2000/svg" role="img" aria-labelledby="title desc">
  <title id="title">Pet placeholder</title>
  <desc id="desc">A replaceable pet helper placeholder.</desc>
  <rect x="14" y="20" width="100" height="96" rx="8" fill="#EAF7F2"/>
  <path d="M34 48L24 26L50 38L34 48Z" fill="#58BFA6"/>
  <path d="M94 48L104 26L78 38L94 48Z" fill="#58BFA6"/>
  <rect x="30" y="34" width="68" height="64" rx="8" fill="#FFFFFF" stroke="#58BFA6" stroke-width="5"/>
  <circle cx="50" cy="63" r="6" fill="#21312F"/>
  <circle cx="78" cy="63" r="6" fill="#21312F"/>
  <path d="M58 78C61 81 67 81 70 78" stroke="#FF806F" stroke-width="5" stroke-linecap="round"/>
  <path d="M38 86C30 90 26 96 26 104H102C102 96 98 90 90 86" fill="#F2C14E"/>
  <path d="M42 104H86" stroke="#21312F" stroke-opacity="0.18" stroke-width="5" stroke-linecap="round"/>
</svg>
